<?xml version="1.0" standalone="no"?> 
<!DOCTYPE svg PUBLIC "-//W3C//DTD SVG 1.1//EN" "http://www.w3.org/Graphics/SVG/1.1/DTD/svg11.dtd" >
<svg xmlns="http://www.w3.org/2000/svg">
<defs>
  <font id="icons" horiz-adv-x="1200">
    <font-face font-family="icons"
      units-per-em="512" ascent="448"
      descent="64" />
    <missing-glyph horiz-adv-x="0" />
    <glyph glyph-name="arrow-up-b"
      unicode="&#xF101;"
      horiz-adv-x="512" d=" M413.1 120.69999999999999L411.3 122.80000000000001L275.3 279.3C270.7 284.6 263.8 287.9 256.1 287.9C248.40000000000003 287.9 241.50000000000003 284.5 236.90000000000003 279.3L101 123.10000000000002L98.7 120.5C97 118 96 115 96 111.80000000000001C96 103.10000000000002 103.4 96 112.6 96V96H399.4V96C408.59999999999997 96 416 103.10000000000002 416 111.80000000000001C416 115.10000000000002 414.9 118.19999999999999 413.1 120.69999999999999z" />
    <glyph glyph-name="chevron-up"
      unicode="&#xF102;"
      horiz-adv-x="512" d=" M256 234.3L256 234.3L256 234.3L430.2 67.10000000000002C434.5 62.900000000000034 441.59999999999997 63 446 67.30000000000001L476.6 97.19999999999999C481 101.5 481.1 108.5 476.8 112.69999999999999L264.1 316.9C261.90000000000003 319.1 258.90000000000003 320.1 256 319.9C253 320 250.1 319 247.9 316.9L35.2 112.69999999999999C30.900000000000002 108.5 31.000000000000004 101.5 35.400000000000006 97.19999999999999L66 67.30000000000001C70.4 63 77.5 62.900000000000034 81.8 67.10000000000002L256 234.3z" />
    <glyph glyph-name="chevron-down"
      unicode="&#xF103;"
      horiz-adv-x="512" d=" M256 149.7L256 149.7L256 149.7L430.2 316.9C434.5 321.09999999999997 441.59999999999997 321 446 316.7L476.6 286.79999999999995C481 282.5 481.1 275.5 476.8 271.29999999999995L264.1 67.10000000000002C261.90000000000003 64.90000000000003 258.90000000000003 63.900000000000034 256 64.10000000000002C253 64 250.1 65 247.9 67.10000000000002L35.2 271.3C30.900000000000002 275.5 31.000000000000004 282.5 35.400000000000006 286.8L66 316.7C70.4 321 77.5 321.1 81.8 316.9L256 149.7z" />
    <glyph glyph-name="chevron-left"
      unicode="&#xF104;"
      horiz-adv-x="512" d=" M213.7 192L213.7 192L213.7 192L380.9 366.1C385.09999999999997 370.4 385 377.5 380.7 381.9L350.8 412.5C346.5 416.9 339.5 417 335.3 412.7L131.1 200.1C128.9 197.9 127.89999999999999 194.9 128.1 192C128 189 129 186.10000000000002 131.1 183.89999999999998L335.29999999999995 -28.80000000000001C339.49999999999994 -33.10000000000002 346.49999999999994 -33 350.79999999999995 -28.600000000000023L380.69999999999993 2C384.99999999999994 6.399999999999977 385.0999999999999 13.5 380.8999999999999 17.80000000000001L213.7 192z" />
    <glyph glyph-name="chevron-right"
      unicode="&#xF105;"
      horiz-adv-x="512" d=" M298.3 192L298.3 192L298.3 192L131.1 366.1C126.89999999999999 370.4 127 377.5 131.29999999999998 381.9L161.2 412.5C165.5 416.9 172.5 417 176.7 412.7L380.9 200C383.09999999999997 197.8 384.09999999999997 194.8 383.9 191.89999999999998C384 188.89999999999998 383 186 380.9 183.79999999999995L176.7 -28.80000000000001C172.5 -33.10000000000002 165.5 -33 161.2 -28.600000000000023L131.3 2C127.00000000000001 6.399999999999977 126.9 13.5 131.10000000000002 17.80000000000001L298.3 192z" />
    <glyph glyph-name="ios7-checkmark-outline"
      unicode="&#xF106;"
      horiz-adv-x="512" d=" M340.1 270.7L215.3 145L168.10000000000002 192.2L150.3 174.39999999999998L206.3 118.39999999999998C208.8 115.89999999999998 212.20000000000002 113.89999999999998 215.20000000000002 113.89999999999998S221.50000000000003 115.89999999999998 224.00000000000003 118.29999999999995L357.70000000000005 252.69999999999996L340.1 270.7z M256 400C141.1 400 48 306.9 48 192S141.1 -16 256 -16C370.9 -16 464 77.10000000000002 464 192S370.9 400 256 400zM256 1.3000000000000114C150.9 1.3000000000000114 65.30000000000001 86.80000000000001 65.30000000000001 192C65.30000000000001 297.1 150.8 382.7 256 382.7C361.1 382.7 446.7 297.2 446.7 192C446.7 86.89999999999998 361.1 1.3000000000000114 256 1.3000000000000114z" />
    <glyph glyph-name="checkmark"
      unicode="&#xF107;"
      horiz-adv-x="512" d=" M432 384L192 144L80 256L0 176L192 -16L512 304z" />
    <glyph glyph-name="close"
      unicode="&#xF108;"
      horiz-adv-x="512" d=" M507.331 36.670000000000016C507.329 36.672000000000025 507.327 36.674000000000035 507.32500000000005 36.67500000000001L352.003 192L507.325 347.325C507.327 347.327 507.329 347.328 507.33099999999996 347.33C509.003 349.003 510.21199999999993 350.957 510.98699999999997 353.038C513.11 358.726 511.89899999999994 365.37899999999996 507.325 369.953L433.952 443.326C429.378 447.899 422.727 449.109 417.038 446.986C414.958 446.211 413.003 445.002 411.329 443.331C411.329 443.329 411.327 443.328 411.325 443.326L256.001 288L100.677 443.325C100.67500000000001 443.327 100.674 443.328 100.67200000000001 443.33C98.99900000000001 445.001 97.04500000000002 446.21 94.96500000000002 446.985C89.27500000000002 449.109 82.62400000000002 447.898 78.05000000000001 443.325L4.676 369.951C0.10200000000000031 365.377 -1.1079999999999997 358.725 1.0150000000000001 353.037C1.7910000000000001 350.957 3 349.001 4.671 347.329C4.673 347.328 4.674 347.326 4.676 347.324L160.001 192L4.676 36.67399999999998C4.675 36.67199999999997 4.673 36.67099999999999 4.672000000000001 36.66899999999998C3.0010000000000003 34.99599999999998 1.7920000000000007 33.04199999999997 1.0150000000000006 30.96199999999999C-1.1089999999999995 25.274 0.10200000000000053 18.62099999999998 4.676 14.046999999999969L78.05 -59.32600000000002C82.625 -63.900000000000034 89.276 -65.11000000000001 94.965 -62.98700000000002C97.045 -62.21100000000001 99 -61.00200000000001 100.673 -59.33100000000002C100.674 -59.32900000000001 100.676 -59.32800000000003 100.678 -59.32600000000002L256.002 95.99899999999997L411.326 -59.32600000000002C411.32800000000003 -59.327 411.33000000000004 -59.32900000000001 411.332 -59.33000000000004C413.006 -61.002000000000066 414.959 -62.21100000000001 417.039 -62.98700000000002C422.728 -65.11000000000001 429.381 -63.900000000000034 433.953 -59.32600000000002L507.32599999999996 14.048000000000002C511.9 18.622000000000014 513.111 25.274999999999977 510.98799999999994 30.963000000000022C510.212 33.043000000000006 509.003 34.997000000000014 507.331 36.670000000000016z" />
    <glyph glyph-name="list"
      unicode="&#xF109;"
      horiz-adv-x="512" d=" M0 448L128 448L128 320L0 320zM192 416L512 416L512 352L192 352zM0 256L128 256L128 128L0 128zM192 224L512 224L512 160L192 160zM0 64L128 64L128 -64L0 -64zM192 32L512 32L512 -32L192 -32z" />
    <glyph glyph-name="phone"
      unicode="&#xF10A;"
      horiz-adv-x="512" d=" M504.88576000000006 22.254079999999988L432.69973333333337 -49.35338666666672C422.04416 -60.28117333333341 407.9197866666667 -63.98336000000006 394.16448 -64C333.33418666666665 -62.17770666666672 275.83573333333334 -32.29696000000001 228.62592 -1.614933333333397C151.13386666666668 54.76053333333334 80.03157333333334 124.66346666666664 35.406506666666665 209.13834666666665C18.2912 244.56149333333332 -1.7911466666666669 289.75872 0.12757333333333334 329.2974933333333C0.2986666666666667 344.1710933333333 4.306773333333333 358.76864 14.781866666666666 368.35584L86.96789333333334 440.5056C101.95754666666667 453.25568 116.45354666666667 448.84736 126.04586666666665 433.99594666666667L184.11989333333332 323.8724266666667C190.23232 310.82624 186.72639999999998 296.8477866666667 177.60682666666665 287.52597333333335L151.01184 260.94464C149.37002666666666 258.6952533333333 148.32469333333333 256.13568 148.29824 253.34954666666667C158.49642666666665 213.8734933333333 189.3922133333333 177.48863999999998 216.6848 152.44885333333332C243.9773866666667 127.40863999999999 273.3141333333333 93.48394666666667 311.3949866666667 85.45279999999997C316.1019733333334 84.13994666666662 321.86752 83.67871999999994 325.2352 86.80917333333326L356.1723733333334 118.27285333333333C366.83733333333333 126.3560533333333 382.23573333333337 130.30698666666666 393.62176000000005 123.69749333333334H394.1644800000001L498.9154133333334 61.855146666666656C514.2924800000001 52.21589333333327 515.8958933333334 33.587626666666665 504.88576000000006 22.254079999999988L504.88576000000006 22.254079999999988z" />
    <glyph glyph-name="map-marker"
      unicode="&#xF10B;"
      horiz-adv-x="512" d=" M256 448C149.40928 448 62.99989333333334 361.59104 62.99989333333334 254.99989333333332C62.99989333333334 219.35317333333333 69.97717333333334 182.53610666666663 89.99978666666668 156L256 -64L422.00021333333336 156C440.1868800000001 180.1024 449.00010666666674 222.7118933333333 449.00010666666674 254.99989333333332C449.00010666666674 361.59104 362.59072000000003 448 256 448zM256 336.21888C300.8494933333333 336.21888 337.21856 299.84938666666665 337.21856 255.00032C337.21856 210.15039999999996 300.8494933333333 173.7813333333333 256 173.7813333333333S174.78144 210.15039999999996 174.78144 254.9998933333333C174.78144 299.84938666666665 211.1505066666667 336.21888 256 336.21888z" />
    <glyph glyph-name="menu2"
      unicode="&#xF10C;"
      horiz-adv-x="512" d=" M32 352L480 352L480 256L32 256zM32 224L480 224L480 128L32 128zM32 96L480 96L480 0L32 0z" />
    <glyph glyph-name="facebook2"
      unicode="&#xF10D;"
      horiz-adv-x="512" d=" M426.672 448L85.342 448C38.406 448 0 409.593 0 362.656L0 21.343000000000018C0 -25.625999999999976 38.406 -64 85.342 -64L426.67199999999997 -63.999000000000024C473.60999999999996 -63.999000000000024 512 -25.626000000000033 512 21.34499999999997L512 362.656C512 409.593 473.609 448 426.672 448zM435.296 192L352 192L352 -32L256 -32L256 192L209.737 192L209.737 265.282L256 265.28200000000004L256 312.875C256 377.546 283.896 416 359.935 416L447.557 416L447.557 336.71500000000003L375.992 336.71500000000003C354.75100000000003 336.75 352.11600000000004 325.639 352.11600000000004 304.959L352 265.28200000000004L448 265.28200000000004L435.296 192z" />
    <glyph glyph-name="twitter2"
      unicode="&#xF10E;"
      horiz-adv-x="512" d=" M426.671 448L85.343 448C38.406 448 0 409.595 0 362.655L0 21.34400000000005C0 -25.625 38.406 -64 85.343 -64L426.671 -64C473.609 -64 512 -25.625 512 21.345000000000027L512 362.655C512 409.595 473.609 448 426.671 448zM419.026 277.08299999999997C419.19 273.41200000000003 419.271 269.719 419.271 266.009C419.271 152.902 334.663 22.475000000000023 179.942 22.475000000000023C132.44 22.475000000000023 88.22500000000001 36.649 50.998999999999995 60.934000000000026C57.57899999999999 60.14000000000004 64.27499999999999 59.73700000000002 71.064 59.73700000000002C110.475 59.73700000000002 146.743 73.42200000000003 175.531 96.37800000000004C138.723 97.06800000000004 107.659 121.81600000000003 96.95400000000001 155.81900000000007C102.09100000000001 154.81900000000007 107.36000000000001 154.2820000000001 112.78 154.2820000000001C120.452 154.2820000000001 127.883 155.3300000000001 134.94 157.28600000000012C96.46000000000001 165.1520000000001 67.465 199.7440000000001 67.465 241.2140000000001C67.465 241.5750000000001 67.465 241.9330000000001 67.473 242.2900000000001C78.813 235.8800000000001 91.785 232.03000000000011 105.57300000000001 231.5850000000001C83.00200000000001 246.93400000000008 68.15200000000002 273.1310000000001 68.15200000000002 302.82900000000006C68.15200000000002 318.5140000000001 72.29900000000002 333.2180000000001 79.54100000000001 345.85800000000006C121.02800000000002 294.0730000000001 183.00900000000001 259.9980000000001 252.918 256.4270000000001C251.483 262.6930000000001 250.739 269.2250000000001 250.739 275.9340000000001C250.739 323.2030000000001 288.402 361.5240000000001 334.854 361.5240000000001C359.049 361.5240000000001 380.913 351.1310000000001 396.255 334.4950000000001C415.415 338.3330000000001 433.417 345.4550000000001 449.671 355.2660000000001C443.39 335.2780000000001 430.054 318.5050000000001 412.688 307.91100000000006C429.70099999999996 309.9800000000001 445.914 314.5810000000001 460.998 321.3880000000001C449.725 304.226 435.463 289.15 419.026 277.08299999999997z" />
    <glyph glyph-name="radio-unchecked"
      unicode="&#xF10F;"
      horiz-adv-x="512" d=" M256 448C114.615 448 0 333.385 0 192S114.615 -64 256 -64S512 50.61500000000001 512 192S397.385 448 256 448zM256 0C149.961 0 64 85.96100000000001 64 192C64 298.039 149.961 384 256 384C362.039 384 448 298.039 448 192C448 85.96100000000001 362.039 0 256 0z" />
    <glyph glyph-name="radio-checked"
      unicode="&#xF110;"
      horiz-adv-x="512" d=" M256 448C114.615 448 0 333.385 0 192S114.615 -64 256 -64S512 50.61500000000001 512 192S397.385 448 256 448zM256 0C149.961 0 64 85.96100000000001 64 192S149.961 384 256 384S448 298.039 448 192S362.039 0 256 0z M160 192C160 138.98066401624385 202.98066401624382 96 256 96C309.01933598375615 96 352 138.98066401624385 352 192C352 245.01933598375618 309.01933598375615 288 256 288C202.98066401624382 288 160 245.01933598375618 160 192z" />
    <glyph glyph-name="android-printer"
      unicode="&#xF111;"
      horiz-adv-x="512" d=" M96 416H416V320H96z M512 229C511.7 261.6 485.2 288 452.5 288H59.5C26.8 288 0.3 261.6 0 229H0V64H96V-32H416V64H512L512 229L512 229zM352 32H160V160H352V32zM416 200C402.7 200 392 210.7 392 224S402.7 248 416 248S440 237.3 440 224S429.3 200 416 200z" />
    <glyph glyph-name="dashboard"
      unicode="&#xF112;"
      horiz-adv-x="512" d=" M256.0000042666667 364.64063999999996C114.61500159999999 364.64063999999996 0.0000013653333007823677 250.0256341333333 0.0000013653333007823677 108.64063999999996C0.0000013653333007823677 77.24083626666663 5.656001280000011 47.15623679999999 16.00000170666668 19.359445333333326L86.00000000000001 19.359445333333326C71.96380586666669 46.03244373333331 64.00000426666668 76.40634026666663 64.00000426666668 108.64063999999996C64.00000426666668 214.67963733333332 149.96100693333338 300.6406357333333 256.0000042666667 300.6406357333333C362.0390016 300.6406357333333 448.00000000000006 214.67963733333332 448.00000000000006 108.64063999999996C448.00000000000006 76.40623786666663 440.03622400000006 46.03243946666663 426.00000853333336 19.359445333333326L496.00000000000006 19.359445333333326C506.34402133333333 47.15623679999999 512 77.24094293333332 512 108.64063999999996C512 250.0256341333333 397.3850069333334 364.64063999999996 256.0000042666667 364.64063999999996zM256.0000042666667 264.1094357333333C238.32690346666666 264.1094357333333 224.00000426666668 249.7825365333333 224.00000426666668 232.1094357333333C224.00000426666668 214.43633919999996 238.32690346666666 200.1094357333333 256.0000042666667 200.1094357333333C273.67310506666666 200.1094357333333 288.0000042666667 214.43633919999996 288.0000042666667 232.1094357333333C288.0000042666667 249.7825365333333 273.67310506666666 264.1094357333333 256.0000042666667 264.1094357333333zM160.03120213333335 232.76563626666663C142.35810560000002 232.76563626666663 128.03120213333335 218.43873706666665 128.03120213333335 200.76564053333328C128.03120213333335 183.0925397333333 142.35810560000002 168.76564053333328 160.03120213333335 168.76564053333328C177.70430293333334 168.76564053333328 192.03120213333335 183.0925397333333 192.03120213333335 200.76564053333328C192.03120213333335 218.43873706666665 177.70430293333334 232.76563626666663 160.03120213333335 232.76563626666663zM351.9687082666667 232.76563626666663C334.29540693333337 232.76563626666663 319.968704 218.43873706666665 319.968704 200.76564053333328C319.968704 183.0925397333333 334.29540693333337 168.76564053333328 351.9687082666667 168.76564053333328C369.6417024 168.76564053333328 383.9687082666667 183.0925397333333 383.9687082666667 200.76564053333328C383.9687082666667 218.43873706666665 369.6417024 232.76563626666663 351.9687082666667 232.76563626666663zM256.0000042666667 169.95314346666663L230.90620586666668 44.45314133333329L230.90620586666668 19.35935999999998L281.0937045333333 19.35935999999998L281.0937045333333 44.45314133333329L256.0000042666667 169.95314346666663z" />
    <glyph glyph-name="car"
      unicode="&#xF113;"
      horiz-adv-x="512" d=" M91.58898346666666 405.01252693333333L59.175104 270.01462186666663L50.18145706666667 270.01462186666663L-6.063298011819522e-15 270.01462186666663L-6.063298011819522e-15 230.9933312L20.297623466666664 230.9933312L20.297623466666664 -21.01252266666671L78.56723626666667 -21.01252266666671L78.56723626666667 20.239871999999934L433.4327466666667 20.239871999999934L433.4327466666667 -21.01252266666671L491.6710826666667 -21.01252266666671L491.6710826666667 230.9933312L512 230.9933312L512 270.01462186666663L461.78726400000005 270.01462186666663L452.8249173333334 270.01462186666663L420.4110165333334 405.01252693333333L91.59164586666671 405.01252693333333zM108.86053546666672 378.76397226666666L403.13812906666675 378.76397226666666L429.2442197333334 270.01195946666667L82.74780160000005 270.01195946666667L108.85387946666673 378.76397226666666zM37.157714346666666 197.9855573333333L118.41212586666667 167.97855146666666V128.98788266666668L37.157714346666666 158.99488853333332V197.9855573333333zM474.80234666666666 197.9855573333333L474.80234666666666 158.99488853333332L393.5812181333333 128.98788266666662L393.5812181333333 168.00917759999993L474.80234666666666 197.9855573333333zM177.4221098666667 95.98477226666665L334.5179690666667 95.98477226666665L334.5179690666667 56.994103466666616L177.42210986666666 56.994103466666616L177.42210986666666 95.98477226666665z" />
    <glyph glyph-name="check-empty"
      unicode="&#xF114;"
      horiz-adv-x="512" d=" M0.0000010218666666666667 448L0.0000010218666666666667 -64L512 -64L512 448L0.0000010218666666666667 448zM84.00000426666668 364L428 364L428 20.000042666666616L84.00000426666666 20.000042666666616L84.00000426666666 364z" />
    <glyph glyph-name="check"
      unicode="&#xF115;"
      horiz-adv-x="512" d=" M0.0000010218666666666667 448.0000014933333L0.0000010218666666666667 117.03000746666663L0.0000010218666666666667 -64L181.02999893333336 -64L512 -64L512 126.90961493333333L512 266.97000106666667L428 182.97000106666667L428 20.000042666666616L265.0299989333334 20.000042666666616L84.0000042666667 20.000042666666616L84.0000042666667 201.03000746666666L84.0000042666667 364.0000042666667L246.97000106666675 364.0000042666667L330.9700010666667 448.00000149333334zM439.4699946666667 441.5312042666667L254.22000213333334 256.2512042666666L188.0320042666667 322.4392064L120.15700053333335 254.53320106666663L254.21700693333335 120.50320640000001L322.0920021333334 188.3782058666667L507.34199466666666 373.65820586666666L439.467008 441.5332014933333z" />
    <glyph glyph-name="thumbs-up"
      unicode="&#xF116;"
      horiz-adv-x="512" d=" M464 160C500.5 160 480 64 448 64C464 64 448 -16 416 -16C416 -48 384 -64 352 -64C216.824 -64 264.368 -30.17500000000001 128 -16L128 240C248.461 276.134 368 366.712 368 448C394.5 448 464 416 368 256C368 256 448 256 464 256C512 256 496 160 464 160zM96 240L96 -16L128 -16L128 -32L64 -32C46.4 -32 32 -10.399999999999977 32 16L32 208C32 234.4 46.4 256 64 256L128 256L128 240L96 240z" />
    <glyph glyph-name="images"
      unicode="&#xF117;"
      horiz-adv-x="512" d=" M64 320L64 0L512 0L512 320L64 320zM480 53.33300000000003L416 160L343.467 99.55599999999998L288 192L96 32L96 288L480 288L480 53.33300000000003zM128 208A48 48 7560 1 0 224 208A48 48 7560 1 0 128 208zM448 384L0 384L0 64L32 64L32 352L448 352z" />
    <glyph glyph-name="tag"
      unicode="&#xF118;"
      horiz-adv-x="512" d=" M13.099520000000002 260.03541333333334V408.4458666666667C14.233173333333335 431.1214933333333 32.50474666666667 447.7269333333333 52.65365333333334 448H201.06368C224.93056000000004 446.51690666666667 253.42677333333336 437.15968 268.7313066666667 419.88693333333333L488.40448 175.36938666666668C502.2033066666666 157.90037333333333 502.59370666666666 133.72714666666667 488.40448 119.14368000000002L316.4578133333333 -52.8029866666667C299.59893333333326 -68.0554666666668 274.44437333333326 -67.40608000000009 260.23210666666665 -52.8029866666667L41.21216 192.36821333333333C25.245866666666668 211.22389333333334 13.31968 236.43349333333333 13.099520000000002 260.03541333333334zM77.4976 345.68192C78.43328000000001 323.6189866666667 95.83744 307.69621333333333 115.41760000000001 307.4350933333333C137.54410666666666 308.4232533333333 153.40288 326.05952 153.66442666666669 345.68192C152.68992000000003 367.8186666666667 134.96405333333334 383.34506666666664 115.41760000000001 383.60192C93.34442666666668 382.6798933333333 77.7536 365.18570666666665 77.4976 345.68192L77.4976 345.68192z" />
    <glyph glyph-name="mobile"
      unicode="&#xF119;"
      horiz-adv-x="757.4794520547945" d=" M477.594301369863 364.0004383561644C470.3596712328767 371.2420821917808 461.7854246575342 374.85764383561644 451.8820821917808 374.85764383561644H305.5973698630137C295.6905205479452 374.85764383561644 287.1197808219178 371.23857534246577 279.88164383561644 364.0004383561644C272.6435068493151 356.7658082191781 269.02443835616435 348.1915616438356 269.02443835616435 338.2882191780822V45.715287671232886C269.02443835616435 35.8084383561644 272.64350684931503 27.237698630137004 279.88164383561644 19.999561643835648S295.6905205479452 9.142356164383557 305.5973698630137 9.142356164383557H451.8820821917808C461.78542465753424 9.142356164383557 470.3596712328767 12.764931506849337 477.594301369863 19.999561643835648C484.8324383561643 27.237698630137004 488.451506849315 35.8084383561644 488.451506849315 45.715287671232886V338.2882191780822C488.451506849315 348.1915616438356 484.8359452054794 356.76230136986305 477.594301369863 364.0004383561644zM355.8820821917808 338.2882191780822H401.5973698630137C404.6448219178082 338.2882191780822 406.1667945205479 336.7627397260274 406.1667945205479 333.7152876712329S404.6448219178082 329.14235616438356 401.5973698630137 329.14235616438356H355.8820821917808C352.8346301369863 329.14235616438356 351.30915068493147 330.66783561643837 351.30915068493147 333.7152876712329C351.30915068493147 336.7627397260274 352.8346301369863 338.2882191780822 355.8820821917808 338.2882191780822zM394.88526027397256 29.569753424657563C390.4070136986301 25.098520547945213 385.02750684931505 22.857643835616443 378.73972602739724 22.857643835616443C372.4554520547945 22.857643835616443 367.07594520547946 25.09501369863017 362.59769863013696 29.569753424657563C358.1194520547945 34.04800000000006 355.8820821917808 39.43101369863018 355.8820821917808 45.715287671232886C355.8820821917808 51.99956164383565 358.12295890410957 57.38257534246577 362.59769863013696 61.857315068493165C367.07243835616435 66.33205479452056 372.4554520547945 68.57643835616437 378.73972602739724 68.57643835616437C385.02750684931505 68.57643835616437 390.4070136986301 66.33205479452056 394.88526027397256 61.857315068493165S401.5973698630137 51.99956164383565 401.5973698630137 45.715287671232886C401.5973698630137 39.42750684931508 399.35999999999996 34.04800000000006 394.88526027397256 29.569753424657563zM461.02794520547945 91.42706849315067C461.02794520547945 88.95123287671231 460.1231780821917 86.80504109589043 458.31013698630136 84.99901369863016C456.49709589041095 83.1894794520548 454.3579178082191 82.28821917808222 451.8855890410959 82.28821917808222H305.5973698630137C303.1215342465753 82.28821917808222 300.9788493150685 83.1929863013699 299.1693150684931 84.99901369863016S296.4550136986301 88.95123287671231 296.4550136986301 91.42706849315067V292.5694246575342C296.4550136986301 295.04526027397264 297.3597808219178 297.1879452054794 299.1693150684931 298.9974794520548C300.9788493150685 300.80350684931506 303.1215342465753 301.71178082191784 305.5973698630137 301.71178082191784H451.8820821917808C454.3614246575342 301.71178082191784 456.50060273972605 300.80701369863016 458.3136438356164 298.9974794520548C460.1231780821917 297.1879452054794 461.02443835616435 295.0452602739726 461.02443835616435 292.5694246575342V91.42706849315067z" />
    <glyph glyph-name="mail"
      unicode="&#xF11A;"
      horiz-adv-x="512" d=" M40.2944 312.6784C52.78720000000001 305.97119999999995 225.84320000000002 212.992 232.2944 209.536C238.74560000000002 206.08 247.0912 204.4416 255.48800000000003 204.4416C263.8848 204.4416 272.23040000000003 206.08 278.68160000000006 209.536S458.1888 305.97119999999995 470.6816000000001 312.6784C483.20000000000005 319.4112 495.0272 345.6 472.0640000000001 345.6H38.9376C15.974400000000001 345.6 27.801600000000004 319.4112 40.2944 312.6784zM476.4928 256.2816C462.2848 248.8832 287.3856 157.74719999999996 278.6816 153.1904S263.8848 148.096 255.48799999999997 148.096S240.99839999999995 148.6336 232.29439999999997 153.1904S49.689600000000006 248.90879999999999 35.4816 256.30719999999997C25.497600000000002 261.52959999999996 25.6 255.4112 25.6 250.7008S25.6 64 25.6 64C25.6 53.24799999999999 40.0896 38.39999999999998 51.2 38.39999999999998H460.8C471.91040000000004 38.39999999999998 486.40000000000003 53.24799999999999 486.40000000000003 64C486.40000000000003 64 486.40000000000003 245.96479999999997 486.40000000000003 250.6752S486.5024000000001 261.504 476.4928 256.2816z" />
  </font>
</defs>
</svg>
